<mxfile host="www.draw.io" modified="2019-11-09T06:11:47.277Z" agent="Mozilla/5.0 (Macintosh; Intel Mac OS X 10_14_3) AppleWebKit/537.36 (KHTML, like Gecko) Chrome/78.0.3904.70 Safari/537.36" etag="6KWrvgie-mZ_inVUu_UP" version="12.2.3" type="github" pages="1">
  <diagram id="RaGqoshBm2zzH5z1hGzv" name="Page-1">
    <mxGraphModel dx="772" dy="438" grid="1" gridSize="10" guides="1" tooltips="1" connect="1" arrows="1" fold="1" page="1" pageScale="1" pageWidth="850" pageHeight="1100" math="0" shadow="0">
      <root>
        <mxCell id="0"/>
        <mxCell id="1" parent="0"/>
        <mxCell id="RTPdt28luKZq3hcmtIXt-1" value="&lt;b&gt;&lt;font style=&quot;font-size: 14px&quot;&gt;A&lt;/font&gt;&lt;/b&gt;" style="ellipse;whiteSpace=wrap;html=1;aspect=fixed;fillColor=#dae8fc;strokeColor=#6c8ebf;" vertex="1" parent="1">
          <mxGeometry x="160" y="160" width="40" height="40" as="geometry"/>
        </mxCell>
        <mxCell id="RTPdt28luKZq3hcmtIXt-2" value="&lt;b style=&quot;white-space: normal&quot;&gt;&lt;font style=&quot;font-size: 14px&quot;&gt;B&lt;/font&gt;&lt;/b&gt;" style="ellipse;whiteSpace=wrap;html=1;aspect=fixed;fillColor=#d5e8d4;strokeColor=#82b366;" vertex="1" parent="1">
          <mxGeometry x="160" y="240" width="40" height="40" as="geometry"/>
        </mxCell>
        <mxCell id="RTPdt28luKZq3hcmtIXt-3" value="&lt;b style=&quot;white-space: normal&quot;&gt;&lt;font style=&quot;font-size: 14px&quot;&gt;C&lt;/font&gt;&lt;/b&gt;" style="ellipse;whiteSpace=wrap;html=1;aspect=fixed;fillColor=#ffe6cc;strokeColor=#d79b00;" vertex="1" parent="1">
          <mxGeometry x="160" y="320" width="40" height="40" as="geometry"/>
        </mxCell>
        <mxCell id="RTPdt28luKZq3hcmtIXt-4" value="&lt;b style=&quot;white-space: normal&quot;&gt;&lt;font style=&quot;font-size: 14px&quot;&gt;D&lt;/font&gt;&lt;/b&gt;" style="ellipse;whiteSpace=wrap;html=1;aspect=fixed;fillColor=#fff2cc;strokeColor=#d6b656;" vertex="1" parent="1">
          <mxGeometry x="160" y="400" width="40" height="40" as="geometry"/>
        </mxCell>
        <mxCell id="RTPdt28luKZq3hcmtIXt-5" value="&lt;b style=&quot;white-space: normal&quot;&gt;&lt;font style=&quot;font-size: 14px&quot;&gt;E&lt;/font&gt;&lt;/b&gt;" style="ellipse;whiteSpace=wrap;html=1;aspect=fixed;fillColor=#f8cecc;strokeColor=#b85450;" vertex="1" parent="1">
          <mxGeometry x="160" y="480" width="40" height="40" as="geometry"/>
        </mxCell>
        <mxCell id="RTPdt28luKZq3hcmtIXt-6" value="&lt;span style=&quot;font-size: 14px&quot;&gt;&lt;b&gt;F&lt;/b&gt;&lt;/span&gt;" style="ellipse;whiteSpace=wrap;html=1;aspect=fixed;fillColor=#e1d5e7;strokeColor=#9673a6;" vertex="1" parent="1">
          <mxGeometry x="160" y="560" width="40" height="40" as="geometry"/>
        </mxCell>
        <mxCell id="RTPdt28luKZq3hcmtIXt-7" value="&lt;span style=&quot;font-size: 14px&quot;&gt;&lt;b&gt;G&lt;/b&gt;&lt;/span&gt;" style="ellipse;whiteSpace=wrap;html=1;aspect=fixed;fillColor=#bac8d3;strokeColor=#23445d;" vertex="1" parent="1">
          <mxGeometry x="160" y="640" width="40" height="40" as="geometry"/>
        </mxCell>
        <mxCell id="RTPdt28luKZq3hcmtIXt-8" value="&lt;span style=&quot;font-size: 14px&quot;&gt;&lt;b&gt;H&lt;/b&gt;&lt;/span&gt;&lt;span style=&quot;color: rgba(0 , 0 , 0 , 0) ; font-family: monospace ; font-size: 0px ; white-space: nowrap&quot;&gt;%3CmxGraphModel%3E%3Croot%3E%3CmxCell%20id%3D%220%22%2F%3E%3CmxCell%20id%3D%221%22%20parent%3D%220%22%2F%3E%3CmxCell%20id%3D%222%22%20value%3D%22%26lt%3Bspan%20style%3D%26quot%3Bfont-size%3A%2014px%26quot%3B%26gt%3B%26lt%3Bb%26gt%3BF%26lt%3B%2Fb%26gt%3B%26lt%3B%2Fspan%26gt%3B%22%20style%3D%22ellipse%3BwhiteSpace%3Dwrap%3Bhtml%3D1%3Baspect%3Dfixed%3BfillColor%3D%23e1d5e7%3BstrokeColor%3D%239673a6%3B%22%20vertex%3D%221%22%20parent%3D%221%22%3E%3CmxGeometry%20x%3D%22160%22%20y%3D%22640%22%20width%3D%2240%22%20height%3D%2240%22%20as%3D%22geometry%22%2F%3E%3C%2FmxCell%3E%3C%2Froot%3E%3C%2FmxGraphModel%3E&lt;/span&gt;" style="ellipse;whiteSpace=wrap;html=1;aspect=fixed;fillColor=#b0e3e6;strokeColor=#0e8088;" vertex="1" parent="1">
          <mxGeometry x="160" y="720" width="40" height="40" as="geometry"/>
        </mxCell>
        <mxCell id="RTPdt28luKZq3hcmtIXt-9" value="&lt;span style=&quot;font-size: 14px&quot;&gt;&lt;b&gt;I&lt;/b&gt;&lt;/span&gt;" style="ellipse;whiteSpace=wrap;html=1;aspect=fixed;fillColor=#cdeb8b;strokeColor=#36393d;" vertex="1" parent="1">
          <mxGeometry x="160" y="800" width="40" height="40" as="geometry"/>
        </mxCell>
      </root>
    </mxGraphModel>
  </diagram>
</mxfile>
